<?xml version="1.0" encoding="UTF-8"?>
<svg width="40px" height="40px" viewBox="0 0 40 40" version="1.1" xmlns="http://www.w3.org/2000/svg" xmlns:xlink="http://www.w3.org/1999/xlink">
	<defs>
		<path d="M24.4616194,0.453940115 C33.3596071,2.48129547 40,10.4423957 40,19.9544429 C40,29.3061492 33.5815892,37.1587554 24.9096434,39.3473855 C24.4362026,38.5860903 23.952458,37.8903827 23.4589777,37.2585189 C22.4645174,35.9851884 24.0750427,35.6808704 23.546987,34.8920462 C23.0189313,34.103222 21.8748105,34.103222 21.3467548,32.788515 C20.9549715,31.8130872 21.580561,32.0920805 22.288978,32.4442225 L22.4750468,32.5369682 C22.6617656,32.6298199 22.8485907,32.7206592 23.0189313,32.788515 C23.8990242,33.1391035 25.2034969,33.5936735 26.2272511,33.5936735 C27.2510052,33.5936735 27.5687221,32.7911945 27.6746277,32.4074003 C27.7805333,32.023606 27.8158351,31.2560175 27.9923445,31.0466751 C28.1688538,30.8373328 28.66308,30.8373328 28.8748912,30.6279905 C29.0867024,30.4186481 28.8748912,30.139525 28.8748912,29.9650731 C28.8748912,29.7906211 29.3338155,29.8255115 29.475023,29.7208404 C29.6162304,29.6161692 29.475023,29.2672653 29.475023,28.883471 C29.475023,28.4996768 29.4397211,28.255444 29.8633435,28.0461017 C29.9788769,27.9890083 30.1206679,27.9371053 30.2686652,27.8861459 L30.5669938,27.7842272 C30.8617154,27.6810502 31.1277923,27.5703237 31.2048145,27.4180747 C31.346022,27.1389516 30.6752865,26.4760342 30.2869659,25.9875688 C29.8986454,25.4991033 29.6162304,24.7315148 29.722136,24.1732686 C29.8280416,23.6150224 30.4987771,22.5334203 30.7811921,22.0449549 C31.063607,21.5564894 31.0298154,20.9739231 31.2048145,20.614449 C31.3798137,20.2549748 32.083888,20.1553576 32.083888,21.3067404 C32.083888,22.4581232 32.1718973,23.3226245 32.699953,21.4820347 C32.7879623,20.8685047 33.1399994,19.2032092 33.7560645,20.8685047 C34.3721295,22.5338003 34.5481481,19.9920334 33.6680552,18.6773264 C32.7879623,17.3626193 32.732801,16.4733356 33.5800459,17.4502665 C34.9001852,18.6773264 37.3644453,17.800855 35.8646612,17.6487659 C34.3648771,17.4966769 33.5700397,15.8344657 33.9583603,16.0786985 C34.3466808,16.3229312 36.2203245,15.9602652 35.3402316,15.7849709 C34.4601388,15.6096767 33.7465491,15.1715484 33.2876248,14.4737406 C32.8287005,13.7759328 31.8198601,11.1396728 30.2869659,9.62397658 C28.7540718,8.10828036 25.45061,7.146759 24.9916857,6.76296472 C24.5327614,6.37917045 24.6033651,5.71625307 24.6033651,5.26267802 C24.6033651,4.80910297 24.9916857,4.59976064 24.9916857,3.90195287 C24.9916857,3.2041451 24.1797427,3.27392587 24.1797427,1.9829815 C24.1797427,1.48646443 24.2789639,1.01575387 24.4211676,0.5708498 Z M18.6439004,-0.000688967724 C18.4705833,0.11715349 18.3271921,0.220130763 18.2137269,0.308242852 C16.7310484,1.45962567 14.3305214,3.65772015 14.154012,4.77421258 C13.9775027,5.89070501 14.3305214,6.16982812 14.154012,7.04208783 C13.9775027,7.91434754 13.2008616,8.19347065 12.1065036,9.24018231 C11.0121457,10.286894 9.98839154,12.62455 9.56476911,14.0550559 C9.14114669,15.4855618 8.40938943,18.7649735 9.11346373,18.9402678 C9.81753804,19.115562 11.0496681,18.3267378 12.545826,17.8885022 C12.6775512,17.8499189 12.8120052,17.812015 12.9499689,17.7743718 L12.9972374,17.7507465 C13.7249086,17.3369129 11.9988903,17.0147212 12.1323753,16.6494834 C12.3058581,16.1748045 13.5984275,16.971478 14.4561591,16.3953114 C15.3138906,15.8191449 15.0375,14.3265312 15.5633016,14.3448171 C16.0891033,14.3631029 15.7175612,15.8396686 16.524121,16.4672291 C16.9761246,16.8189198 17.5516214,16.6172127 18.0202279,16.5355159 C18.4020356,16.4391866 18.8060012,16.3355138 19.2345319,16.2232066 C22.5788848,15.3467353 23.2829591,14.7332053 24.3390706,14.4702639 C25.3951821,14.2073225 22.5217559,16.1983168 19.9386062,17.0996779 C19.3428031,17.3075767 18.6395214,17.533409 17.8969595,17.761396 C17.5592342,17.8957034 17.2301327,18.0769285 17.094476,18.4481085 C16.7406181,19.4163244 17.837875,20.4669942 17.4090095,20.7550779 C16.9801434,21.0431608 16.3924972,19.6356876 15.3790128,19.6004416 C14.3655285,19.5651956 13.6856169,20.9322209 13.2730853,20.6112422 C13.1421688,20.5093799 13.2517379,20.2257221 13.3810892,19.9301401 L13.4593082,19.752719 C13.6314376,19.3592953 13.7598159,19.0054764 13.3110462,19.1017293 C12.5924621,19.3061796 12.0325211,19.4660256 11.7537424,19.5537977 C10.7554793,19.8680961 9.56476911,20.439997 8.32920372,20.9982432 C7.09363832,21.5564894 4.3047907,23.0916665 3.88116828,23.8592551 C3.45754586,24.6268436 3.66935707,25.4293226 4.44599818,25.7084457 C5.22263928,25.9875688 6.43493862,25.8984394 7.52929654,25.6890971 C8.62365447,25.4797548 9.55351017,25.2508614 10.6976309,25.2508614 C11.8417517,25.2508614 12.6338353,27.1790984 11.4897145,26.916157 C10.3455938,26.6532156 10.4336031,27.4420398 11.4897145,27.7049812 C12.545826,27.9679226 12.7314389,28.3282727 12.1057795,28.4061583 C11.4017052,28.4938054 11.7887868,28.8485806 12.283013,29.057923 C12.7772391,29.2672653 13.5139281,29.8961596 12.8978631,30.5973366 C12.2817981,31.2985137 10.9616588,30.2467481 10.1695752,30.5973366 C9.3774916,30.9479252 10.3414102,32.9656465 10.2002027,33.5936735 C10.0589953,34.2217005 9.45886351,34.5008236 8.82342987,35.0590698 C8.56595294,35.2852705 8.28674073,35.5802133 7.98579325,35.9438984 C3.13592723,32.2954542 0,26.491166 0,19.9544429 C0,9.36898516 8.22365859,0.704265829 18.6306772,0.000583416162 Z" id="path-1">
		</path>
	</defs>
	<g id="Webapp" stroke="none" stroke-width="1" fill="none" fill-rule="evenodd">
		<g id="n-wa-2-0-0" transform="translate(-40.000000, -40.000000)">
			<g id="enchanta-beta_logo" transform="translate(40.000000, 40.045557)">
				<g id="mark">
					<mask id="mask-2" fill="white">
						<use xlink:href="#path-1">
						</use>
					</mask>
					<use id="Combined-Shape" fill="#000000" xlink:href="#path-1">
					</use>
				</g>
			</g>
		</g>
	</g>
</svg>
