<svg width="32" height="32" viewBox="0 0 32 32" fill="none" xmlns="http://www.w3.org/2000/svg">
<path opacity="0.2" d="M16 4C13.5718 3.99929 11.2006 4.73521 9.19952 6.11053C7.19843 7.48586 5.66165 9.43589 4.79218 11.703C3.92271 13.9701 3.76146 16.4477 4.32972 18.8084C4.89799 21.1691 6.16904 23.3019 7.97497 24.925C8.72746 23.4432 9.87557 22.1986 11.292 21.3293C12.7085 20.46 14.338 19.9999 16 20C15.0111 20 14.0444 19.7068 13.2221 19.1573C12.3999 18.6079 11.759 17.827 11.3806 16.9134C11.0021 15.9998 10.9031 14.9945 11.096 14.0245C11.289 13.0546 11.7652 12.1637 12.4644 11.4645C13.1637 10.7652 14.0546 10.289 15.0245 10.0961C15.9944 9.90315 16.9998 10.0022 17.9134 10.3806C18.827 10.759 19.6079 11.3999 20.1573 12.2221C20.7067 13.0444 21 14.0111 21 15C21 16.3261 20.4732 17.5979 19.5355 18.5355C18.5978 19.4732 17.3261 20 16 20C17.6619 19.9999 19.2914 20.46 20.7079 21.3293C22.1244 22.1986 23.2725 23.4432 24.025 24.925C25.8309 23.3019 27.1019 21.1691 27.6702 18.8084C28.2385 16.4477 28.0772 13.9701 27.2078 11.703C26.3383 9.43589 24.8015 7.48586 22.8004 6.11053C20.7993 4.73521 18.4281 3.99929 16 4Z" fill="black"/>
<path d="M16 28C22.6274 28 28 22.6274 28 16C28 9.37258 22.6274 4 16 4C9.37258 4 4 9.37258 4 16C4 22.6274 9.37258 28 16 28Z" stroke="black" stroke-width="2" stroke-linecap="round" stroke-linejoin="round"/>
<path d="M16 20C18.7614 20 21 17.7614 21 15C21 12.2386 18.7614 10 16 10C13.2386 10 11 12.2386 11 15C11 17.7614 13.2386 20 16 20Z" stroke="black" stroke-width="2" stroke-linecap="round" stroke-linejoin="round"/>
<path d="M7.97498 24.925C8.72736 23.4431 9.87542 22.1984 11.2919 21.3289C12.7084 20.4595 14.3379 19.9993 16 19.9993C17.662 19.9993 19.2916 20.4595 20.708 21.3289C22.1245 22.1984 23.2726 23.4431 24.025 24.925" stroke="black" stroke-width="2" stroke-linecap="round" stroke-linejoin="round"/>
</svg>
