<?xml version="1.0" encoding="UTF-8"?>
<svg width="16px" height="16px" viewBox="0 0 16 16" version="1.1" xmlns="http://www.w3.org/2000/svg" xmlns:xlink="http://www.w3.org/1999/xlink">
    <g id="Webapp" stroke="none" stroke-width="1" fill="none" fill-rule="evenodd">
        <g id="n-wa-new_story-5-0-0" transform="translate(-692.000000, -1012.000000)">
            <g id="bot-nav" transform="translate(0.000000, 960.000000)">
                <g id="view_mode" transform="translate(680.000000, 40.000000)">
                    <g id="landscape" transform="translate(4.000000, 4.000000)">
                        <g id="landscape_view-icon" transform="translate(8.000000, 8.000000)">
                            <polygon id="Path" points="0 0 16 0 16 16 0 16"></polygon>
                            <path d="M2.66666667,8 L2.66666667,4 C2.66666667,3.26362033 3.26362033,2.66666667 4,2.66666667 L12,2.66666667 C12.7363797,2.66666667 13.3333333,3.26362033 13.3333333,4 L13.3333333,8" id="Path" stroke="#000000" stroke-width="1.5" stroke-linecap="round" stroke-linejoin="round"></path>
                            <line x1="6.66666667" y1="12" x2="2" y2="12" id="Path" stroke="#000000" stroke-width="1.5" stroke-linecap="round" stroke-linejoin="round"></line>
                            <line x1="14" y1="12" x2="9.33333333" y2="12" id="Path" stroke="#000000" stroke-width="1.5" stroke-linecap="round" stroke-linejoin="round"></line>
                            <polyline id="Path" stroke="#000000" stroke-width="1.5" stroke-linecap="round" stroke-linejoin="round" points="4 10 2 12 4 14"></polyline>
                            <polyline id="Path" stroke="#000000" stroke-width="1.5" stroke-linecap="round" stroke-linejoin="round" points="12 10 14 12 12 14"></polyline>
                        </g>
                    </g>
                </g>
            </g>
        </g>
    </g>
</svg>