<?xml version="1.0" encoding="UTF-8"?>
<svg width="16px" height="16px" viewBox="0 0 16 16" version="1.1" xmlns="http://www.w3.org/2000/svg" xmlns:xlink="http://www.w3.org/1999/xlink">
    <g id="Webapp" stroke="none" stroke-width="1" fill="none" fill-rule="evenodd" opacity="0.239999995">
        <g id="n-wa-new_story-5-1-0" transform="translate(-732.000000, -1012.000000)">
            <g id="bot-nav" transform="translate(0.000000, 960.000000)">
                <g id="view_mode" transform="translate(680.000000, 40.000000)">
                    <g id="portrait" transform="translate(44.000000, 4.000000)">
                        <g id="portrait_view-icon_off" transform="translate(8.000000, 8.000000)">
                            <polygon id="Path" points="0 0 16 0 16 16 0 16"></polygon>
                            <path d="M8,13.3333333 L4,13.3333333 C3.26362033,13.3333333 2.66666667,12.7363797 2.66666667,12 L2.66666667,4 C2.66666667,3.26362033 3.26362033,2.66666667 4,2.66666667 L8,2.66666667" id="Path" stroke="#000000" stroke-width="1.5" stroke-linecap="round" stroke-linejoin="round"></path>
                            <line x1="12" y1="9.33333333" x2="12" y2="14" id="Path" stroke="#000000" stroke-width="1.5" stroke-linecap="round" stroke-linejoin="round"></line>
                            <line x1="12" y1="2" x2="12" y2="6.66666667" id="Path" stroke="#000000" stroke-width="1.5" stroke-linecap="round" stroke-linejoin="round"></line>
                            <polyline id="Path" stroke="#000000" stroke-width="1.5" stroke-linecap="round" stroke-linejoin="round" points="10 12 12 14 14 12"></polyline>
                            <polyline id="Path" stroke="#000000" stroke-width="1.5" stroke-linecap="round" stroke-linejoin="round" points="10 4 12 2 14 4"></polyline>
                        </g>
                    </g>
                </g>
            </g>
        </g>
    </g>
</svg>