<?xml version="1.0" encoding="UTF-8"?>
<svg width="24px" height="24px" viewBox="0 0 24 24" version="1.1" xmlns="http://www.w3.org/2000/svg" xmlns:xlink="http://www.w3.org/1999/xlink">
    <g id="Webapp" stroke="none" stroke-width="1" fill="none" fill-rule="evenodd">
        <g id="n-wa-new_story-4-12-0" transform="translate(-661.000000, -860.000000)">
            <g id="bot-overlay" transform="translate(0.000000, 840.000000)">
                <g id="btns" transform="translate(632.000000, 8.000000)">
                    <g id="read_story-btn" transform="translate(13.000000, 0.000000)">
                        <g id="read-icon" transform="translate(16.000000, 12.000000)">
                            <polygon id="Path" points="0 0 24 0 24 24 0 24"></polygon>
                            <path d="M3,19 C5.78460969,17.3923048 9.21539031,17.3923048 12,19 C14.7846097,17.3923048 18.2153903,17.3923048 21,19" id="Path" stroke="#FFFFFF" stroke-width="1.5" stroke-linecap="round" stroke-linejoin="round"></path>
                            <path d="M3,6 C5.78460969,4.39230485 9.21539031,4.39230485 12,6 C14.7846097,4.39230485 18.2153903,4.39230485 21,6" id="Path" stroke="#FFFFFF" stroke-width="1.5" stroke-linecap="round" stroke-linejoin="round"></path>
                            <line x1="3" y1="6" x2="3" y2="19" id="Path" stroke="#FFFFFF" stroke-width="1.5" stroke-linecap="round" stroke-linejoin="round"></line>
                            <line x1="12" y1="6" x2="12" y2="19" id="Path" stroke="#FFFFFF" stroke-width="1.5" stroke-linecap="round" stroke-linejoin="round"></line>
                            <line x1="21" y1="6" x2="21" y2="19" id="Path" stroke="#FFFFFF" stroke-width="1.5" stroke-linecap="round" stroke-linejoin="round"></line>
                        </g>
                    </g>
                </g>
            </g>
        </g>
    </g>
</svg>