<?xml version="1.0" encoding="UTF-8"?>
<svg width="24px" height="24px" viewBox="0 0 24 24" version="1.1" xmlns="http://www.w3.org/2000/svg" xmlns:xlink="http://www.w3.org/1999/xlink">
    <g id="Webapp" stroke="none" stroke-width="1" fill="none" fill-rule="evenodd" opacity="0.399999976">
        <g id="n-wa-new_story-7-0-0" transform="translate(-267.000000, -803.000000)">
            <g id="mid" transform="translate(250.000000, 305.000000)">
                <g id="edit_options" transform="translate(0.000000, 486.000000)">
                    <g id="edit_text-icon" transform="translate(17.000000, 12.000000)">
                        <polygon id="Path" points="0 0 24 0 24 24 0 24"></polygon>
                        <path d="M9,7 L6,7 C4.8954305,7 4,7.8954305 4,9 L4,18 C4,19.1045695 4.8954305,20 6,20 L15,20 C16.1045695,20 17,19.1045695 17,18 L17,15" id="Path" stroke="#000000" stroke-width="1.5" stroke-linecap="round" stroke-linejoin="round"></path>
                        <path d="M9,15 L12,15 L20.5,6.5 C21.3284271,5.67157288 21.3284271,4.32842712 20.5,3.5 C19.6715729,2.67157288 18.3284271,2.67157288 17.5,3.5 L9,12 L9,15" id="Path" stroke="#000000" stroke-width="1.5" stroke-linecap="round" stroke-linejoin="round"></path>
                        <line x1="16" y1="5" x2="19" y2="8" id="Path" stroke="#000000" stroke-width="1.5" stroke-linecap="round" stroke-linejoin="round"></line>
                    </g>
                </g>
            </g>
        </g>
    </g>
</svg>