<?xml version="1.0" encoding="UTF-8"?>
<svg width="24px" height="24px" viewBox="0 0 24 24" version="1.1" xmlns="http://www.w3.org/2000/svg" xmlns:xlink="http://www.w3.org/1999/xlink">
    <g id="Webapp" stroke="none" stroke-width="1" fill="none" fill-rule="evenodd">
        <g id="n-wa-new_story-4-9-0" transform="translate(-645.000000, -924.000000)">
            <g id="continue-btn" transform="translate(629.000000, 912.000000)">
                <g id="generate-icon" transform="translate(16.000000, 12.000000)">
                    <polygon id="Path" points="0 0 24 0 24 24 0 24"></polygon>
                    <polyline id="Path" stroke="#FFFFFF" stroke-width="1.5" stroke-linecap="round" stroke-linejoin="round" points="6 21 21 6 18 3 3 18 6 21"></polyline>
                    <line x1="15" y1="6" x2="18" y2="9" id="Path" stroke="#FFFFFF" stroke-width="1.5" stroke-linecap="round" stroke-linejoin="round"></line>
                    <path d="M9,3 C9,4.1045695 9.8954305,5 11,5 C9.8954305,5 9,5.8954305 9,7 C9,5.8954305 8.1045695,5 7,5 C8.1045695,5 9,4.1045695 9,3" id="Path" stroke="#FFFFFF" stroke-width="1.5" stroke-linecap="round" stroke-linejoin="round"></path>
                    <path d="M19,13 C19,14.1045695 19.8954305,15 21,15 C19.8954305,15 19,15.8954305 19,17 C19,15.8954305 18.1045695,15 17,15 C18.1045695,15 19,14.1045695 19,13" id="Path" stroke="#FFFFFF" stroke-width="1.5" stroke-linecap="round" stroke-linejoin="round"></path>
                </g>
            </g>
        </g>
    </g>
</svg>