<?xml version="1.0" encoding="UTF-8"?>
<svg width="168px" height="40px" viewBox="0 0 168 40" version="1.1" xmlns="http://www.w3.org/2000/svg" xmlns:xlink="http://www.w3.org/1999/xlink">
	<defs>
		<path d="M24.4616194,0.453940115 C33.3596071,2.48129547 40,10.4423957 40,19.9544429 C40,29.3061492 33.5815892,37.1587554 24.9096434,39.3473855 C24.4362026,38.5860903 23.952458,37.8903827 23.4589777,37.2585189 C22.4645174,35.9851884 24.0750427,35.6808704 23.546987,34.8920462 C23.0189313,34.103222 21.8748105,34.103222 21.3467548,32.788515 C20.9549715,31.8130872 21.580561,32.0920805 22.288978,32.4442225 L22.4750468,32.5369682 C22.6617656,32.6298199 22.8485907,32.7206592 23.0189313,32.788515 C23.8990242,33.1391035 25.2034969,33.5936735 26.2272511,33.5936735 C27.2510052,33.5936735 27.5687221,32.7911945 27.6746277,32.4074003 C27.7805333,32.023606 27.8158351,31.2560175 27.9923445,31.0466751 C28.1688538,30.8373328 28.66308,30.8373328 28.8748912,30.6279905 C29.0867024,30.4186481 28.8748912,30.139525 28.8748912,29.9650731 C28.8748912,29.7906211 29.3338155,29.8255115 29.475023,29.7208404 C29.6162304,29.6161692 29.475023,29.2672653 29.475023,28.883471 C29.475023,28.4996768 29.4397211,28.255444 29.8633435,28.0461017 C29.9788769,27.9890083 30.1206679,27.9371053 30.2686652,27.8861459 L30.5669938,27.7842272 C30.8617154,27.6810502 31.1277923,27.5703237 31.2048145,27.4180747 C31.346022,27.1389516 30.6752865,26.4760342 30.2869659,25.9875688 C29.8986454,25.4991033 29.6162304,24.7315148 29.722136,24.1732686 C29.8280416,23.6150224 30.4987771,22.5334203 30.7811921,22.0449549 C31.063607,21.5564894 31.0298154,20.9739231 31.2048145,20.614449 C31.3798137,20.2549748 32.083888,20.1553576 32.083888,21.3067404 C32.083888,22.4581232 32.1718973,23.3226245 32.699953,21.4820347 C32.7879623,20.8685047 33.1399994,19.2032092 33.7560645,20.8685047 C34.3721295,22.5338003 34.5481481,19.9920334 33.6680552,18.6773264 C32.7879623,17.3626193 32.732801,16.4733356 33.5800459,17.4502665 C34.9001852,18.6773264 37.3644453,17.800855 35.8646612,17.6487659 C34.3648771,17.4966769 33.5700397,15.8344657 33.9583603,16.0786985 C34.3466808,16.3229312 36.2203245,15.9602652 35.3402316,15.7849709 C34.4601388,15.6096767 33.7465491,15.1715484 33.2876248,14.4737406 C32.8287005,13.7759328 31.8198601,11.1396728 30.2869659,9.62397658 C28.7540718,8.10828036 25.45061,7.146759 24.9916857,6.76296472 C24.5327614,6.37917045 24.6033651,5.71625307 24.6033651,5.26267802 C24.6033651,4.80910297 24.9916857,4.59976064 24.9916857,3.90195287 C24.9916857,3.2041451 24.1797427,3.27392587 24.1797427,1.9829815 C24.1797427,1.48646443 24.2789639,1.01575387 24.4211676,0.5708498 Z M18.6439004,-0.000688967724 C18.4705833,0.11715349 18.3271921,0.220130763 18.2137269,0.308242852 C16.7310484,1.45962567 14.3305214,3.65772015 14.154012,4.77421258 C13.9775027,5.89070501 14.3305214,6.16982812 14.154012,7.04208783 C13.9775027,7.91434754 13.2008616,8.19347065 12.1065036,9.24018231 C11.0121457,10.286894 9.98839154,12.62455 9.56476911,14.0550559 C9.14114669,15.4855618 8.40938943,18.7649735 9.11346373,18.9402678 C9.81753804,19.115562 11.0496681,18.3267378 12.545826,17.8885022 C12.6775512,17.8499189 12.8120052,17.812015 12.9499689,17.7743718 L12.9972374,17.7507465 C13.7249086,17.3369129 11.9988903,17.0147212 12.1323753,16.6494834 C12.3058581,16.1748045 13.5984275,16.971478 14.4561591,16.3953114 C15.3138906,15.8191449 15.0375,14.3265312 15.5633016,14.3448171 C16.0891033,14.3631029 15.7175612,15.8396686 16.524121,16.4672291 C16.9761246,16.8189198 17.5516214,16.6172127 18.0202279,16.5355159 C18.4020356,16.4391866 18.8060012,16.3355138 19.2345319,16.2232066 C22.5788848,15.3467353 23.2829591,14.7332053 24.3390706,14.4702639 C25.3951821,14.2073225 22.5217559,16.1983168 19.9386062,17.0996779 C19.3428031,17.3075767 18.6395214,17.533409 17.8969595,17.761396 C17.5592342,17.8957034 17.2301327,18.0769285 17.094476,18.4481085 C16.7406181,19.4163244 17.837875,20.4669942 17.4090095,20.7550779 C16.9801434,21.0431608 16.3924972,19.6356876 15.3790128,19.6004416 C14.3655285,19.5651956 13.6856169,20.9322209 13.2730853,20.6112422 C13.1421688,20.5093799 13.2517379,20.2257221 13.3810892,19.9301401 L13.4593082,19.752719 C13.6314376,19.3592953 13.7598159,19.0054764 13.3110462,19.1017293 C12.5924621,19.3061796 12.0325211,19.4660256 11.7537424,19.5537977 C10.7554793,19.8680961 9.56476911,20.439997 8.32920372,20.9982432 C7.09363832,21.5564894 4.3047907,23.0916665 3.88116828,23.8592551 C3.45754586,24.6268436 3.66935707,25.4293226 4.44599818,25.7084457 C5.22263928,25.9875688 6.43493862,25.8984394 7.52929654,25.6890971 C8.62365447,25.4797548 9.55351017,25.2508614 10.6976309,25.2508614 C11.8417517,25.2508614 12.6338353,27.1790984 11.4897145,26.916157 C10.3455938,26.6532156 10.4336031,27.4420398 11.4897145,27.7049812 C12.545826,27.9679226 12.7314389,28.3282727 12.1057795,28.4061583 C11.4017052,28.4938054 11.7887868,28.8485806 12.283013,29.057923 C12.7772391,29.2672653 13.5139281,29.8961596 12.8978631,30.5973366 C12.2817981,31.2985137 10.9616588,30.2467481 10.1695752,30.5973366 C9.3774916,30.9479252 10.3414102,32.9656465 10.2002027,33.5936735 C10.0589953,34.2217005 9.45886351,34.5008236 8.82342987,35.0590698 C8.56595294,35.2852705 8.28674073,35.5802133 7.98579325,35.9438984 C3.13592723,32.2954542 0,26.491166 0,19.9544429 C0,9.36898516 8.22365859,0.704265829 18.6306772,0.000583416162 Z" id="path-1">
		</path>
	</defs>
	<g id="Webapp" stroke="none" stroke-width="1" fill="none" fill-rule="evenodd">
		<g id="n-wa-2-0-0" transform="translate(-40.000000, -40.000000)">
			<g id="enchanta-beta_logo" transform="translate(40.000000, 40.045557)">
				<g id="mark">
					<mask id="mask-2" fill="white">
						<use xlink:href="#path-1">
						</use>
					</mask>
					<use id="Combined-Shape" fill="#000000" xlink:href="#path-1">
					</use>
				</g>
				<g id="wordmark" transform="translate(52.000000, 10.954443)" fill="#000000" fill-rule="nonzero">
					<path d="M42.6784238,6.62686567 L42.6784238,7.25373134 C42.3844953,7.28358209 42.1383301,7.3358209 41.9399284,7.41044776 C41.7415266,7.48507463 41.5725177,7.59328358 41.4329016,7.73507463 C41.2932856,7.87686567 41.1610177,8.04850746 41.0360981,8.25 C40.9111785,8.45149254 40.7825847,8.69402985 40.6503169,8.97761194 L36.1752549,18 L35.9107192,18 L31.0608983,8.32835821 C30.8992376,7.98507463 30.7265546,7.72761194 30.5428493,7.55597015 C30.3591439,7.38432836 30.017452,7.28358209 29.5177735,7.25373134 L29.5177735,6.62686567 C30.1791127,6.65671642 30.807385,6.67164179 31.4025902,6.67164179 L34.9187104,6.67164179 C35.491871,6.67164179 36.042987,6.65671642 36.5720584,6.62686567 L36.5720584,7.25373134 C35.9988978,7.26865672 35.5910719,7.35074627 35.3485809,7.5 C35.1060898,7.64925373 34.9664738,7.8358209 34.9297327,8.05970149 C34.8929916,8.28358209 34.9334068,8.54477612 35.0509782,8.84328358 C35.1685496,9.14179104 35.3008175,9.44776119 35.4477818,9.76119403 L37.2774869,13.6343284 L39.3937724,9.24626866 C39.7611831,8.48507463 39.8640581,7.97014925 39.7023974,7.70149254 C39.5407367,7.43283582 39.0631028,7.28358209 38.2694957,7.25373134 L38.2694957,6.62686567 C38.6809957,6.65671642 39.0851474,6.67164179 39.481951,6.67164179 L41.6423257,6.67164179 C41.9803435,6.67164179 42.3257096,6.65671642 42.6784238,6.62686567 Z M23.8523009,6.40298507 C24.7046937,6.40298507 25.4836043,6.54850746 26.1890328,6.83955224 C26.8944613,7.13059701 27.4970148,7.53731343 27.9966933,8.05970149 C28.4963718,8.58208955 28.882153,9.19402985 29.1540369,9.89552239 C29.4259208,10.5970149 29.5618628,11.3656716 29.5618628,12.2014925 C29.5618628,13.0671642 29.4185726,13.8544776 29.1319923,14.5634328 C28.845412,15.2723881 28.4449343,15.880597 27.9305594,16.3880597 C27.4161844,16.8955224 26.8099568,17.2910448 26.1118766,17.5746269 C25.4137963,17.858209 24.645908,18 23.8082116,18 C22.9705153,18 22.202627,17.8544776 21.5045467,17.5634328 C20.8064664,17.2723881 20.207587,16.8656716 19.7079085,16.3432836 C19.20823,15.8208955 18.8187747,15.2052239 18.5395426,14.4962687 C18.2603105,13.7873134 18.1206944,13.0149254 18.1206944,12.1791045 C18.1206944,11.3283582 18.2639846,10.5485075 18.5505649,9.83955224 C18.8371452,9.13059701 19.2339487,8.52238806 19.7409755,8.01492537 C20.2480022,7.50746269 20.8505557,7.1119403 21.548636,6.82835821 C22.2467163,6.54477612 23.0146046,6.40298507 23.8523009,6.40298507 Z M48.0793607,6.40298507 C48.6231285,6.40298507 49.1521999,6.48134328 49.6665748,6.6380597 C50.1809498,6.79477612 50.636539,7.03731343 51.0333425,7.36567164 C51.430146,7.69402985 51.7497933,8.1119403 51.9922844,8.61940299 C52.2347754,9.12686567 52.3560209,9.7238806 52.3560209,10.4104478 C52.3560209,10.5447761 52.3523468,10.6604478 52.3449986,10.7574627 C52.3376504,10.8544776 52.3266281,10.9552239 52.3119317,11.0597015 L45.610361,11.0597015 C45.5956646,11.1492537 45.5883163,11.238806 45.5883163,11.3283582 L45.5883163,11.5970149 C45.5883163,12.358209 45.6875172,12.9962687 45.885919,13.511194 C46.0843207,14.0261194 46.3451823,14.4402985 46.6685037,14.7537313 C46.9918251,15.0671642 47.3555617,15.2910448 47.7597134,15.4253731 C48.1638652,15.5597015 48.571691,15.6268657 48.983191,15.6268657 C49.5269588,15.6268657 50.0597042,15.5335821 50.5814274,15.3470149 C51.1031505,15.1604478 51.5550657,14.8955224 51.9371728,14.5522388 L52.4221549,15 C52.187012,15.3880597 51.9261505,15.761194 51.6395701,16.119403 C51.3529898,16.4776119 51.014972,16.7985075 50.6255167,17.0820896 C50.2360614,17.3656716 49.7951685,17.5895522 49.3028382,17.7537313 C48.8105079,17.9179104 48.2410214,18 47.5943786,18 C46.8007716,18 46.0769725,17.8656716 45.4229815,17.5970149 C44.7689905,17.3283582 44.2142004,16.9514925 43.7586112,16.4664179 C43.303022,15.9813433 42.9503077,15.3955224 42.7004684,14.7089552 C42.4506292,14.0223881 42.3257096,13.261194 42.3257096,12.4253731 C42.3257096,11.5447761 42.4763479,10.7350746 42.7776247,9.99626866 C43.0789014,9.25746269 43.4904014,8.62313433 44.0121246,8.09328358 C44.5338477,7.56343284 45.1437494,7.14925373 45.8418297,6.85074627 C46.53991,6.55223881 47.2857537,6.40298507 48.0793607,6.40298507 Z M18.5836319,1.56716418 L18.5836319,2.28358209 C17.9957748,2.32835821 17.5254891,2.37686567 17.1727749,2.42910448 C16.8200606,2.48134328 16.5555249,2.56343284 16.3791678,2.67537313 C16.2028107,2.78731343 16.0889134,2.93283582 16.0374759,3.1119403 C15.9860384,3.29104478 15.9603196,3.52985075 15.9603196,3.82835821 L15.9603196,17.7313433 L15.695784,17.8208955 L4.43097272,5.21641791 L4.43097272,15.5149254 C4.43097272,15.8134328 4.46036557,16.0522388 4.51915128,16.2313433 C4.57793699,16.4104478 4.70285662,16.5559701 4.89391017,16.6679104 C5.08496372,16.7798507 5.3494994,16.8619403 5.68751722,16.9141791 C6.02553504,16.9664179 6.47377606,17.0149254 7.03224029,17.0597015 L7.03224029,17.7761194 C6.44438321,17.7462687 5.87857077,17.7313433 5.33480298,17.7313433 L2.237531,17.7313433 C1.70111142,17.7313433 1.13897309,17.7462687 0.55111601,17.7761194 L0.55111601,17.0597015 C1.13897309,17.0149254 1.60558464,16.9664179 1.95095068,16.9141791 C2.29631671,16.8619403 2.55717829,16.7798507 2.73353541,16.6679104 C2.90989253,16.5559701 3.02378984,16.4104478 3.07522734,16.2313433 C3.12666483,16.0522388 3.15238358,15.8134328 3.15238358,15.5149254 L3.15238358,4.81343284 C3.15238358,4.39552239 3.06787912,4.04477612 2.89887021,3.76119403 C2.7298613,3.47761194 2.49839258,3.23880597 2.20446404,3.04477612 C1.9105355,2.85074627 1.57619179,2.69402985 1.2014329,2.57462687 C0.826674015,2.45522388 0.426196381,2.35820896 0,2.28358209 L0,1.56716418 C0.52907137,1.59701493 1.05814274,1.6119403 1.58721411,1.6119403 L4.71755304,1.6119403 C5.23192799,1.6119403 5.75365114,1.59701493 6.28272251,1.56716418 L14.7037751,11.1268657 L14.7037751,3.82835821 C14.7037751,3.52985075 14.6707082,3.29104478 14.6045743,3.1119403 C14.5384403,2.93283582 14.4135207,2.78731343 14.2298154,2.67537313 C14.04611,2.56343284 13.7815744,2.48134328 13.4362083,2.42910448 C13.0908423,2.37686567 12.6389272,2.32835821 12.0804629,2.28358209 L12.0804629,1.56716418 C12.66832,1.59701493 13.2341325,1.6119403 13.7779002,1.6119403 L16.8751722,1.6119403 C17.4115918,1.6119403 17.9810784,1.59701493 18.5836319,1.56716418 Z M23.6538991,7.36567164 C23.271792,7.36567164 22.9411224,7.48134328 22.6618903,7.71268657 C22.3826582,7.94402985 22.1511895,8.26119403 21.9674842,8.6641791 C21.7837788,9.06716418 21.6478369,9.54477612 21.5596583,10.0970149 C21.4714797,10.6492537 21.4273905,11.2462687 21.4273905,11.8880597 C21.4273905,12.6492537 21.4898503,13.3470149 21.6147699,13.9813433 C21.7396895,14.6156716 21.9160467,15.1567164 22.1438413,15.6044776 C22.3716359,16.0522388 22.6435198,16.4029851 22.959493,16.6567164 C23.2754662,16.9104478 23.6245063,17.0373134 24.0066134,17.0373134 C24.3887205,17.0373134 24.7230642,16.9216418 25.0096445,16.6902985 C25.2962249,16.4589552 25.5313677,16.141791 25.715073,15.738806 C25.8987784,15.3358209 26.0347203,14.8544776 26.1228989,14.2947761 C26.2110774,13.7350746 26.2551667,13.1343284 26.2551667,12.4925373 C26.2551667,11.7313433 26.1927069,11.0373134 26.0677873,10.4104478 C25.9428676,9.78358209 25.7665105,9.24626866 25.5387159,8.79850746 C25.3109213,8.35074627 25.0390374,8 24.7230642,7.74626866 C24.407091,7.49253731 24.0507027,7.36567164 23.6538991,7.36567164 Z M48.0573161,7.3880597 C47.7192982,7.3880597 47.4180215,7.46641791 47.1534858,7.62313433 C46.8889501,7.77985075 46.6611555,7.99253731 46.470102,8.26119403 C46.2790484,8.52985075 46.1210618,8.83955224 45.9961422,9.19029851 C45.8712226,9.54104478 45.7720217,9.91044776 45.6985395,10.2985075 L49.225682,10.0746269 C49.2697713,9.94029851 49.3065124,9.79477612 49.3359052,9.6380597 C49.3652981,9.48134328 49.3799945,9.29850746 49.3799945,9.08955224 C49.3799945,8.55223881 49.2697713,8.13432836 49.0493249,7.8358209 C48.8288785,7.53731343 48.4982089,7.3880597 48.0573161,7.3880597 Z M57.9994489,15.2686567 C57.9994489,15.6865672 58.0067971,16.011194 58.0214935,16.2425373 C58.03619,16.4738806 58.0949757,16.6492537 58.1978506,16.7686567 C58.3007256,16.8880597 58.4550381,16.9701493 58.6607881,17.0149254 C58.8665381,17.0597015 59.1678148,17.1044776 59.5646184,17.1492537 L59.5646184,17.7761194 C59.0502434,17.7462687 58.5432167,17.7313433 58.0435382,17.7313433 C57.5438596,17.7313433 57.0147883,17.7313433 56.4563241,17.7313433 C55.8978598,17.7313433 55.3651144,17.7313433 54.8580876,17.7313433 C54.3510609,17.7313433 53.8403601,17.7462687 53.3259851,17.7761194 L53.3259851,17.1492537 C53.7227886,17.1044776 54.0240654,17.0597015 54.2298154,17.0149254 C54.4355654,16.9701493 54.5898778,16.8880597 54.6927528,16.7686567 C54.7956278,16.6492537 54.8544135,16.4738806 54.8691099,16.2425373 C54.8838064,16.011194 54.8911546,15.6865672 54.8911546,15.2686567 L54.8911546,3.85074627 C54.8911546,3.59701493 54.8838064,3.39925373 54.8691099,3.25746269 C54.8544135,3.11567164 54.8103242,3 54.7368421,2.91044776 C54.66336,2.82089552 54.5531368,2.74253731 54.4061725,2.67537313 C54.2592082,2.60820896 54.0608065,2.52985075 53.8109672,2.44029851 L53.4362083,2.30597015 L53.4362083,1.74626866 C54.1857261,1.50746269 54.9131992,1.23880597 55.6186277,0.940298507 C56.3240562,0.641791045 57.0074401,0.328358209 57.6687793,0 L57.9994489,0.223880597 L57.9994489,15.2686567 Z M63.2240287,4.1641791 C62.7243501,4.1641791 62.3018279,3.98507463 61.9564618,3.62686567 C61.6110958,3.26865672 61.4384128,2.8358209 61.4384128,2.32835821 C61.4384128,1.85074627 61.6110958,1.43283582 61.9564618,1.07462687 C62.3018279,0.71641791 62.7243501,0.537313433 63.2240287,0.537313433 C63.7090107,0.537313433 64.1241848,0.71641791 64.4695508,1.07462687 C64.8149169,1.43283582 64.9875999,1.85074627 64.9875999,2.32835821 C64.9875999,2.8358209 64.8149169,3.26865672 64.4695508,3.62686567 C64.1241848,3.98507463 63.7090107,4.1641791 63.2240287,4.1641791 Z M64.7891981,15.2686567 C64.7891981,15.6865672 64.7965463,16.011194 64.8112428,16.2425373 C64.8259392,16.4738806 64.8847249,16.6492537 64.9875999,16.7686567 C65.0904749,16.8880597 65.2447874,16.9701493 65.4505373,17.0149254 C65.6562873,17.0597015 65.9575641,17.1044776 66.3543676,17.1492537 L66.3543676,17.7761194 C65.8399927,17.7462687 65.3329659,17.7313433 64.8332874,17.7313433 C64.3336089,17.7313433 63.8045375,17.7313433 63.2460733,17.7313433 C62.6876091,17.7313433 62.1548636,17.7313433 61.6478369,17.7313433 C61.1408101,17.7313433 60.6301093,17.7462687 60.1157344,17.7761194 L60.1157344,17.1492537 C60.5125379,17.1044776 60.8138146,17.0597015 61.0195646,17.0149254 C61.2253146,16.9701493 61.3796271,16.8880597 61.4825021,16.7686567 C61.5853771,16.6492537 61.6441628,16.4738806 61.6588592,16.2425373 C61.6735556,16.011194 61.6809038,15.6865672 61.6809038,15.2686567 L61.6809038,10.2537313 C61.6809038,10 61.6735556,9.80223881 61.6588592,9.66044776 C61.6441628,9.51865672 61.6000735,9.40298507 61.5265913,9.31343284 C61.4531092,9.2238806 61.342886,9.14552239 61.1959217,9.07835821 C61.0489575,9.01119403 60.8505557,8.93283582 60.6007165,8.84328358 L60.2259576,8.70895522 L60.2259576,8.14925373 C60.9754753,7.91044776 61.7029485,7.64179104 62.408377,7.34328358 C63.1138055,7.04477612 63.7971893,6.73134328 64.4585285,6.40298507 L64.7891981,6.62686567 L64.7891981,15.2686567 Z M78.6332323,15.1791045 C78.6332323,15.5970149 78.6405805,15.9253731 78.6552769,16.1641791 C78.6699734,16.4029851 78.7214109,16.5895522 78.8095894,16.7238806 C78.897768,16.858209 79.0337099,16.9514925 79.2174153,17.0037313 C79.4011206,17.0559701 79.6619822,17.1044776 80,17.1492537 L80,17.7761194 C79.5738036,17.7462687 79.1071921,17.7313433 78.6001653,17.7313433 C78.0931386,17.7313433 77.5824378,17.7313433 77.0680628,17.7313433 C76.5536879,17.7313433 76.042987,17.7313433 75.5359603,17.7313433 C75.0289336,17.7313433 74.562322,17.7462687 74.1361257,17.7761194 L74.1361257,17.1492537 C74.4741435,17.1044776 74.7350051,17.0559701 74.9187104,17.0037313 C75.1024157,16.9514925 75.2383577,16.858209 75.3265362,16.7238806 C75.4147148,16.5895522 75.4661523,16.4029851 75.4808487,16.1641791 C75.4955451,15.9253731 75.5028934,15.5970149 75.5028934,15.1791045 L75.5028934,10.6791045 C75.5028934,9.82835821 75.3706255,9.20522388 75.1060898,8.80970149 C74.8415541,8.4141791 74.4080096,8.21641791 73.805456,8.21641791 C73.3939561,8.21641791 73.0008267,8.29477612 72.6260678,8.45149254 C72.2513089,8.60820896 71.909617,8.79104478 71.600992,9 L71.600992,15.1791045 C71.600992,15.5970149 71.6083402,15.9253731 71.6230366,16.1641791 C71.6377331,16.4029851 71.6891706,16.5895522 71.7773491,16.7238806 C71.8655277,16.858209 72.0014696,16.9514925 72.185175,17.0037313 C72.3688803,17.0559701 72.6370901,17.1044776 72.9898044,17.1492537 L72.9898044,17.7761194 C72.563608,17.7462687 72.0933223,17.7313433 71.5789474,17.7313433 C71.0645724,17.7313433 70.5501975,17.7313433 70.0358225,17.7313433 C69.536144,17.7313433 69.0291173,17.7313433 68.5147424,17.7313433 C68.0003674,17.7313433 67.5300817,17.7462687 67.1038854,17.7761194 L67.1038854,17.1492537 C67.4565996,17.1044776 67.7248094,17.0559701 67.9085147,17.0037313 C68.0922201,16.9514925 68.228162,16.858209 68.3163406,16.7238806 C68.4045192,16.5895522 68.4559566,16.4029851 68.4706531,16.1641791 C68.4853495,15.9253731 68.4926977,15.5970149 68.4926977,15.1791045 L68.4926977,10.3208955 C68.4926977,10.0671642 68.4853495,9.85074627 68.4706531,9.67164179 C68.4559566,9.49253731 68.4155415,9.33955224 68.3494076,9.21268657 C68.2832736,9.0858209 68.1767245,8.97761194 68.0297603,8.8880597 C67.882796,8.79850746 67.677046,8.70895522 67.4125103,8.61940299 L67.0157068,8.48507463 L67.0157068,7.99253731 C67.6917424,7.75373134 68.3898227,7.50373134 69.1099476,7.24253731 C69.8300726,6.98134328 70.5061082,6.70149254 71.1380546,6.40298507 L71.4466795,6.62686567 L71.2703224,8.32835821 C71.5054652,8.10447761 71.7700009,7.87686567 72.0639295,7.64552239 C72.357858,7.4141791 72.6848535,7.20522388 73.044916,7.01865672 C73.4049784,6.83208955 73.7907596,6.68283582 74.2022596,6.57089552 C74.6137595,6.45895522 75.0620006,6.40298507 75.5469826,6.40298507 C76.5022504,6.40298507 77.2554423,6.67164179 77.8065583,7.20895522 C78.3576743,7.74626866 78.6332323,8.65671642 78.6332323,9.94029851 L78.6332323,15.1791045 Z" id="Combined-Shape">
					</path>
				</g>
				<g id="beta-tag" transform="translate(136.000000, 17.954443)">
					<path d="M26.5,0 C29.5375661,-5.57991845e-16 32,2.46243388 32,5.5 C32,8.53756612 29.5375661,11 26.5,11 L5.5,11 C2.46243388,11 3.71994563e-16,8.53756612 0,5.5 C-3.71994563e-16,2.46243388 2.46243388,5.57991845e-16 5.5,0 L26.5,0 Z M7.03837472,2 L4,2 L4,9 L7.12866817,9 C8.52370203,9 9.40406321,8.20928621 9.40406321,6.98198198 C9.40406321,6.08939709 8.74492099,5.37629938 7.89164786,5.32778933 L7.89164786,5.23562024 C8.58239278,5.13374913 9.10609481,4.4982675 9.10609481,3.74636175 C9.10609481,2.65973666 8.33860045,2 7.03837472,2 Z M15.0519187,2 L10.5869074,2 L10.5869074,9 L15.0519187,9 L15.0519187,7.56895357 L12.2437923,7.56895357 L12.2437923,6.13790714 L14.8848758,6.13790714 L14.8848758,4.82813583 L12.2437923,4.82813583 L12.2437923,3.43104643 L15.0519187,3.43104643 L15.0519187,2 Z M21.5214447,2 L16.1083521,2 L16.1083521,3.43104643 L17.986456,3.43104643 L17.986456,9 L19.6388262,9 L19.6388262,3.43104643 L21.5214447,3.43104643 L21.5214447,2 Z M25.8103837,2 L23.7832957,2 L21.5981941,9 L23.241535,9 L23.6613995,7.46223146 L25.7878104,7.46223146 L26.1941309,9 L28,9 L25.8103837,2 Z M6.65011287,5.93416493 C7.33634312,5.93416493 7.72009029,6.25433125 7.72009029,6.82674983 C7.72009029,7.41857242 7.34537246,7.74358974 6.65914221,7.74358974 L5.65688488,7.74358974 L5.65688488,5.93416493 L6.65011287,5.93416493 Z M24.7765237,3.57657658 L25.476298,6.18156618 L23.9774266,6.18156618 L24.6907449,3.57657658 L24.7765237,3.57657658 Z M6.59593679,3.25641026 C7.16027088,3.25641026 7.48984199,3.55717256 7.48984199,4.05682606 C7.48984199,4.55162855 7.13769752,4.85239085 6.53273138,4.85239085 L5.65688488,4.85239085 L5.65688488,3.25641026 L6.59593679,3.25641026 Z" id="Combined-Shape" fill="#000000">
					</path>
					<g id="txt" transform="translate(4.000000, 2.000000)">
					</g>
				</g>
			</g>
		</g>
	</g>
</svg>
