<?xml version="1.0" encoding="UTF-8"?>
<svg width="278px" height="386px" viewBox="0 0 278 386" version="1.1" xmlns="http://www.w3.org/2000/svg" xmlns:xlink="http://www.w3.org/1999/xlink">
    <g id="Webapp" stroke="none" stroke-width="1" fill="none" fill-rule="evenodd" fill-opacity="0">
        <g id="n-wa-new_story-9-1-1" transform="translate(-581.000000, -349.000000)" fill="#FFFFFF" fill-rule="nonzero" stroke="#000000" stroke-width="2.05405405">
            <g id="countdown" transform="translate(0.000000, 120.000000)">
                <g id="#2" transform="translate(584.000000, 232.000000)">
                    <path d="M137.799622,-1.02702703 C176.92119,-1.02702703 209.085403,10.1568161 231.636495,29.0447561 C254.831799,48.4722639 267.88525,76.054299 267.88525,108.094595 C267.88525,151.705661 248.888851,181.689224 186.8326,239.791806 L110.032698,311.379123 L110.032698,314.527027 L273.027027,314.527027 L273.027027,381.027027 L3.34348337,381.027027 L3.34348337,325.385094 L133.746268,200.813122 C179.624819,156.775695 189.732897,140.005317 189.732897,115.283784 C189.732897,100.366583 184.256979,87.0451866 174.067005,77.6441856 C164.4624,68.7832313 150.687779,63.4189189 133.429112,63.4189189 C115.061805,63.4189189 100.075822,69.3763841 89.625621,79.6384137 C78.729734,90.3381037 72.7840447,105.69788 73.0185884,123.756757 L-1.02329812,123.756757 C-1.29213817,86.6972485 12.988544,55.4045973 37.6747067,33.4181358 C62.1406989,11.6277669 96.8502878,-1.02702703 137.799622,-1.02702703 Z" id="Path"></path>
                </g>
            </g>
        </g>
    </g>
</svg>