<?xml version="1.0" encoding="UTF-8"?>
<svg width="24px" height="24px" viewBox="0 0 24 24" version="1.1" xmlns="http://www.w3.org/2000/svg" xmlns:xlink="http://www.w3.org/1999/xlink">
    <g id="Webapp" stroke="none" stroke-width="1" fill="none" fill-rule="evenodd">
        <g id="n-wa-new_story-18-1-0" transform="translate(-1170.000000, -349.000000)">
            <g id="more-dd" transform="translate(1130.000000, 128.000000)">
                <g id="subscription" transform="translate(24.000000, 209.000000)">
                    <g id="subscription-icon" transform="translate(16.000000, 12.000000)">
                        <polygon id="Path" points="0 0 24 0 24 24 0 24"></polygon>
                        <circle id="Oval" stroke="#000000" stroke-width="1.5" stroke-linecap="round" stroke-linejoin="round" cx="12" cy="12" r="9"></circle>
                        <path d="M14.8,9 C14.4308673,8.35967711 13.7386839,7.97513074 13,8 L11,8 C9.8954305,8 9,8.8954305 9,10 C9,11.1045695 9.8954305,12 11,12 L13,12 C14.1045695,12 15,12.8954305 15,14 C15,15.1045695 14.1045695,16 13,16 L11,16 C10.2613161,16.0248693 9.56913268,15.6403229 9.2,15" id="Path" stroke="#000000" stroke-width="1.5" stroke-linecap="round" stroke-linejoin="round"></path>
                        <line x1="12" y1="6" x2="12" y2="18" id="Line" stroke="#000000" stroke-width="1.5" stroke-linecap="round" stroke-linejoin="round"></line>
                    </g>
                </g>
            </g>
        </g>
    </g>
</svg>