<?xml version="1.0" encoding="UTF-8"?>
<svg width="24px" height="24px" viewBox="0 0 24 24" version="1.1" xmlns="http://www.w3.org/2000/svg" xmlns:xlink="http://www.w3.org/1999/xlink">
    <g id="Webapp" stroke="none" stroke-width="1" fill="none" fill-rule="evenodd">
        <g id="n-wa-new_story-5-2-0" transform="translate(-1230.000000, -204.000000)">
            <g id="more-dd" transform="translate(1205.000000, 88.000000)">
                <g id="delete" transform="translate(8.000000, 104.000000)">
                    <g id="delete-icon" transform="translate(17.000000, 12.000000)">
                        <polygon id="Path" points="0 0 24 0 24 24 0 24"></polygon>
                        <line x1="4" y1="7" x2="20" y2="7" id="Path" stroke="#000000" stroke-width="1.5" stroke-linecap="round" stroke-linejoin="round"></line>
                        <line x1="10" y1="11" x2="10" y2="17" id="Path" stroke="#000000" stroke-width="1.5" stroke-linecap="round" stroke-linejoin="round"></line>
                        <line x1="14" y1="11" x2="14" y2="17" id="Path" stroke="#000000" stroke-width="1.5" stroke-linecap="round" stroke-linejoin="round"></line>
                        <path d="M5,7 L6,19 C6,20.1045695 6.8954305,21 8,21 L16,21 C17.1045695,21 18,20.1045695 18,19 L19,7" id="Path" stroke="#000000" stroke-width="1.5" stroke-linecap="round" stroke-linejoin="round"></path>
                        <path d="M9,7 L9,4 C9,3.44771525 9.44771525,3 10,3 L14,3 C14.5522847,3 15,3.44771525 15,4 L15,7" id="Path" stroke="#000000" stroke-width="1.5" stroke-linecap="round" stroke-linejoin="round"></path>
                    </g>
                </g>
            </g>
        </g>
    </g>
</svg>