<?xml version="1.0" encoding="UTF-8"?>
<svg width="512px" height="512px" viewBox="0 0 512 512" version="1.1" xmlns="http://www.w3.org/2000/svg" xmlns:xlink="http://www.w3.org/1999/xlink">
	<defs>
		<linearGradient x1="93.4966397%" y1="74.393728%" x2="41.6222681%" y2="46.8880019%" id="linearGradient-1">
			<stop stop-color="#A89AE7" stop-opacity="0" offset="0%">
			</stop>
			<stop stop-color="#A89AE7" offset="100%">
			</stop>
		</linearGradient>
		<linearGradient x1="76.6611864%" y1="0%" x2="43.5753416%" y2="50%" id="linearGradient-2">
			<stop stop-color="#FF94DA" offset="0%">
			</stop>
			<stop stop-color="#FF94DA" stop-opacity="0" offset="100%">
			</stop>
		</linearGradient>
		<linearGradient x1="20.2540402%" y1="-7.82805719%" x2="46.4892166%" y2="12.7541685%" id="linearGradient-3">
			<stop stop-color="#DAF3FF" offset="0%">
			</stop>
			<stop stop-color="#DAF3FF" stop-opacity="0" offset="100%">
			</stop>
		</linearGradient>
		<linearGradient x1="52.9738363%" y1="43.4870148%" x2="44.9424235%" y2="139.250844%" id="linearGradient-4">
			<stop stop-color="#0076E7" stop-opacity="0" offset="0%">
			</stop>
			<stop stop-color="#0076E7" offset="100%">
			</stop>
		</linearGradient>
		<linearGradient x1="102.174988%" y1="60.1007334%" x2="45.2708828%" y2="50%" id="linearGradient-5">
			<stop stop-color="#FFD393" offset="0%">
			</stop>
			<stop stop-color="#FFD393" stop-opacity="0" offset="100%">
			</stop>
		</linearGradient>
		<radialGradient cx="100%" cy="68.3458964%" fx="100%" fy="68.3458964%" r="30.7918837%" gradientTransform="translate(1.000000,0.683459),rotate(-19.564434),scale(1.000000,1.997134),translate(-1.000000,-0.683459)" id="radialGradient-6">
			<stop stop-color="#FFCC8D" offset="0%">
			</stop>
			<stop stop-color="#F2C690" stop-opacity="0" offset="100%">
			</stop>
		</radialGradient>
		<linearGradient x1="61.4506022%" y1="62.8025564%" x2="107.513631%" y2="122.439524%" id="linearGradient-7">
			<stop stop-color="#62E1FB" stop-opacity="0" offset="0%">
			</stop>
			<stop stop-color="#4B00FF" offset="100%">
			</stop>
		</linearGradient>
		<path d="M313.086822,5.89912858 C426.992072,32.2718357 512,135.870826 512,259.654067 C512,381.337171 429.852133,483.515116 318.859226,512.000257 C312.787763,502.104362 306.593692,493.047993 300.274915,484.822977 C293.528496,476.041309 296.148355,470.801581 299.09503,466.28795 L299.429527,465.779923 C299.485347,465.695719 299.541162,465.611735 299.596911,465.527953 L299.930131,465.02753 C302.250344,461.539396 304.240261,458.340418 301.401434,454.029304 C294.64232,443.764746 279.997575,443.764746 273.238462,426.65715 C267.966353,413.313225 277.087101,418.010286 286.701318,422.887758 L287.441612,423.263003 C289.910941,424.512998 292.389283,425.744745 294.64232,426.65715 C305.907509,431.219176 322.60476,437.134257 335.708814,437.134257 C348.812867,437.134257 352.879642,426.692017 354.235234,421.697903 C354.687098,420.033198 355.038548,417.813591 355.389997,415.493094 L355.521987,414.619065 C356.183897,410.23414 356.889935,405.694036 358.302009,403.991496 C359.395229,402.673402 361.440606,401.993095 363.56789,401.333362 L364.421109,401.069103 C366.41252,400.448231 368.374202,399.773593 369.598607,398.543371 C372.309791,395.819309 369.598607,392.187226 369.598607,389.917174 C369.598607,388.678963 371.346312,388.251218 373.228456,387.897151 L373.700859,387.809743 C375.12087,387.549565 376.54088,387.296295 377.280294,386.739101 C379.08775,385.377069 377.280294,380.836965 377.280294,375.842851 C377.280294,375.207236 377.272974,374.601038 377.271377,374.02145 L377.271714,373.53111 C377.289705,369.820796 377.715726,367.224907 382.250797,364.946601 C383.926801,364.104618 386.034504,363.349384 388.200289,362.60046 L388.966487,362.336265 C393.570847,360.751094 398.238564,359.151777 399.421626,356.774413 C401.229082,353.14233 392.643667,344.516132 387.673164,338.159986 C382.702661,331.80384 379.08775,321.815611 380.443341,314.551444 C381.798933,307.287278 390.384348,293.212955 393.999259,286.856809 C397.61417,280.500663 397.181637,272.920032 399.421626,268.242382 C401.661615,263.564732 410.673766,262.268465 410.673766,277.250809 C410.673766,292.233153 411.800285,303.482457 418.559398,279.531822 C419.685917,271.548277 424.191993,249.878655 432.077625,271.548277 C439.963257,293.217899 442.216295,260.143213 430.951106,243.035616 C419.685917,225.92802 418.979853,214.356235 429.824587,227.068527 C446.722371,243.035616 478.2649,231.630552 459.067663,229.651496 C439.870426,227.672441 429.696508,206.042955 434.667011,209.221028 C439.637514,212.399101 463.620154,207.679917 452.354965,205.398905 C441.089776,203.117892 431.955828,197.416757 426.081597,188.336548 C420.207366,179.25634 407.294209,144.952064 387.673164,125.2291 C368.052119,105.506137 325.767807,92.9943609 319.893576,88.0002463 C314.019346,83.0061317 314.923073,74.3799338 314.923073,68.4777984 C314.923073,62.5756629 319.893576,59.8516004 319.893576,50.7713921 C319.893576,41.6911838 309.500706,42.5992046 309.500706,25.8008192 C309.500706,18.916235 310.942761,12.4129414 312.955913,6.29093858 Z M238.625073,3.44169138e-14 C236.41417,1.52856053 234.58438,2.86466692 233.135704,4.00831916 C214.15742,18.9906629 183.430673,47.5933192 181.171354,62.1216525 C179.952039,69.9623404 180.706853,74.6294164 181.30499,79.0488165 L181.408484,79.8267351 C181.862982,83.3211593 182.139634,86.7679323 181.171354,91.6323296 C178.912034,102.98259 168.971028,106.614673 154.963247,120.234986 C140.955465,133.855298 127.851412,164.273996 122.429045,182.888423 C117.006678,201.502851 107.640185,244.176123 116.652336,246.457136 C125.664487,248.738148 141.435751,238.473591 160.586572,232.771059 C162.29995,232.260867 164.049395,231.759805 165.847366,231.261879 C171.045939,228.556447 168.200213,226.154953 164.149148,223.840293 L163.799121,223.642101 C163.328909,223.378115 162.845505,223.115183 162.359119,222.852979 L161.99393,222.656458 L161.811215,222.558291 L161.01323,222.128821 C157.661333,220.317364 154.619162,218.526601 155.294404,216.648354 C157.514984,210.471606 174.059872,220.838302 185.038836,213.340947 C196.0178,205.843592 192.48,186.42099 199.210261,186.658934 C205.940522,186.896878 201.184784,206.110657 211.508749,214.276774 C215.948054,217.788204 221.317993,217.060046 226.296578,216.042914 L226.988591,215.899511 C228.307962,215.622921 229.595022,215.338824 230.822777,215.123318 C235.661599,213.881723 240.77808,212.546509 246.202008,211.101437 C289.009726,199.696372 298.021877,191.712828 311.540104,188.291308 C325.05833,184.869789 288.278476,210.777558 255.214159,222.506501 C247.563659,225.220371 238.528679,228.169085 229.001196,231.149464 C224.706385,232.893916 220.535,235.25271 218.809293,240.052924 C214.279912,252.651812 228.3248,266.32363 222.83542,270.072458 C220.460774,271.69397 217.705847,269.18702 214.293942,265.782792 L213.85479,265.343585 C213.707202,265.195723 213.558403,265.046486 213.408371,264.896122 L212.633151,264.121444 C208.447931,259.95807 203.329215,255.276654 196.851364,255.047633 C183.878765,254.588995 175.175896,272.377382 169.895492,268.200653 C168.188555,266.850489 169.675548,263.045789 171.370685,259.122803 L171.608266,258.574877 L171.869994,257.973404 L172.05148,257.555797 L172.231534,257.139648 L172.409353,256.725585 C174.526548,251.77187 175.987409,247.404625 170.547517,248.510101 C161.26983,251.19351 154.037724,253.29168 150.447902,254.440681 C137.670136,258.530481 122.429045,265.97233 106.613808,273.236496 C90.7985705,280.500663 55.101321,300.477121 49.678954,310.465351 C44.256587,320.45358 46.9677705,330.895819 56.9087767,334.527903 C66.8497828,338.159986 82.3672143,337.000192 96.3749957,334.27613 C110.382777,331.552067 122.28493,328.573598 136.929676,328.573598 C151.574421,328.573598 161.713091,353.664739 147.068346,350.24322 C132.4236,346.821701 133.550119,357.086258 147.068346,360.507778 C160.586572,363.929297 162.962418,368.618344 154.953978,369.631829 C147.125241,370.622572 149.836083,374.236362 154.829932,376.954048 L155.18194,377.142156 C155.833699,377.484192 156.519667,377.810229 157.222566,378.112903 C163.548661,380.836965 172.97828,389.020438 165.092648,398.144489 C161.030353,402.844758 154.576403,401.491651 147.886911,399.698297 L147.098956,399.485622 C146.704564,399.378607 146.309651,399.270831 145.914654,399.163435 L145.124678,398.949491 C139.727525,397.495631 134.369406,396.255166 130.170562,398.144489 C124.619641,400.642198 125.806289,409.642678 127.720158,418.617882 L127.878976,419.355379 L127.959381,419.723833 L128.176188,420.704488 C129.666831,427.393249 131.303652,433.78366 130.562595,437.134257 C128.755139,445.306444 121.073453,448.938528 112.939902,456.202694 C109.642694,459.147469 106.06702,462.987566 102.21288,467.722986 C40.1384887,420.23861 0,344.711572 0,259.654067 C0,123.108796 103.440131,11.1243097 235.00402,0.267224296 Z" id="path-8">
		</path>
	</defs>
	<g id="Website" stroke="none" stroke-width="1" fill="none" fill-rule="evenodd">
		<g id="enchanta-favicon">
			<mask id="mask-9" fill="white">
				<use xlink:href="#path-8">
				</use>
			</mask>
			<g id="Combined-Shape">
				<use fill="url(#linearGradient-1)" xlink:href="#path-8">
				</use>
				<use fill="url(#linearGradient-2)" xlink:href="#path-8">
				</use>
				<use fill="url(#linearGradient-3)" xlink:href="#path-8">
				</use>
				<use fill="url(#linearGradient-4)" xlink:href="#path-8">
				</use>
				<use fill="url(#linearGradient-5)" xlink:href="#path-8">
				</use>
				<use fill="url(#radialGradient-6)" xlink:href="#path-8">
				</use>
				<use fill="url(#linearGradient-7)" xlink:href="#path-8">
				</use>
			</g>
		</g>
	</g>
</svg>
