<?xml version="1.0" encoding="UTF-8"?>
<svg width="743px" height="385px" viewBox="0 0 743 385" version="1.1" xmlns="http://www.w3.org/2000/svg" xmlns:xlink="http://www.w3.org/1999/xlink">
    <g id="Webapp" stroke="none" stroke-width="1" fill="none" fill-rule="evenodd" fill-opacity="0">
        <g id="n-wa-new_story-9-1-3" transform="translate(-349.000000, -350.000000)" fill="#FFFFFF" fill-rule="nonzero" stroke="#000000" stroke-width="2.00395517">
            <g id="countdown" transform="translate(0.000000, 120.000000)">
                <g id="GO" transform="translate(351.000000, 232.000000)">
                    <path d="M171.598778,-1.00197759 C214.551039,-1.00197759 251.828196,11.4178472 279.698137,33.2641308 C307.900449,55.3709495 326.484002,87.1324576 331.569365,125.497693 L254.526214,125.497693 C248.996554,107.055645 238.612442,92.4890783 224.296959,82.588834 C210.220173,72.8536664 192.353565,67.6334871 171.598778,67.6334871 C142.740837,67.6334871 119.45019,79.082441 103.384523,99.9323961 C87.2587971,120.860296 78.4093096,151.210325 78.4093096,188.872775 C78.4093096,227.172858 87.6413304,258.016732 104.267816,279.312805 C120.933777,300.65944 145.030655,312.366513 174.604888,312.366513 C199.129871,312.366513 219.889841,305.144485 234.697116,292.50911 C249.462107,279.909816 258.285981,261.932158 259.027276,240.43611 L259.237764,234.963744 L180.867676,234.963744 L180.867676,176.097561 L334.680185,176.097561 L334.680185,223.190508 C334.680185,271.828463 319.158093,311.253732 291.261986,338.538003 C263.351026,365.836801 223.027767,381.001978 173.352342,381.001978 C119.270679,381.001978 75.6748427,362.814431 45.5945256,329.780192 C15.5708771,296.808186 -1.00197759,249.011244 -1.00197759,189.624258 C-1.00197759,131.1184 15.693711,83.5090042 45.5602541,50.5051498 C75.486193,17.4356604 118.64722,-1.00197759 171.598778,-1.00197759 Z" id="Path"></path>
                    <path d="M564.14664,-1.00197759 C617.779003,-1.00197759 661.537648,17.4101084 691.873468,50.5415158 C722.089737,83.5423532 739.001978,131.177368 739.001978,189.874753 C739.001978,248.719727 722.139377,296.430961 691.933196,329.464304 C661.630284,362.603431 617.884873,381.001978 564.14664,381.001978 C510.105895,381.001978 466.345612,362.653753 436.079432,329.602421 C405.82514,296.56407 389.040792,248.802021 389.040792,189.874753 C389.040792,131.104135 405.985593,83.5015051 436.213792,50.5351396 C466.615433,17.3796213 510.467031,-1.00197759 564.14664,-1.00197759 Z M564.14664,67.3829927 C534.999499,67.3829927 511.063829,79.237124 494.433404,100.476286 C477.781642,121.742696 468.452079,152.376518 468.452079,189.874753 C468.452079,227.41864 477.678332,258.223593 494.378855,279.595541 C510.907763,300.747871 534.760774,312.617007 564.14664,312.617007 C593.23476,312.617007 617.069754,300.685655 633.63327,279.433981 C650.285452,258.068545 659.59069,227.324438 659.59069,189.874753 C659.59069,152.391799 650.268689,121.767697 633.660752,100.502164 C617.061102,79.2472422 593.180833,67.3829927 564.14664,67.3829927 Z" id="Shape"></path>
                </g>
            </g>
        </g>
    </g>
</svg>