<?xml version="1.0" encoding="UTF-8"?>
<svg width="288px" height="385px" viewBox="0 0 288 385" version="1.1" xmlns="http://www.w3.org/2000/svg" xmlns:xlink="http://www.w3.org/1999/xlink">
    <g id="Webapp" stroke="none" stroke-width="1" fill="none" fill-rule="evenodd" fill-opacity="0">
        <g id="n-wa-new_story-9-1-0" transform="translate(-576.000000, -350.000000)" fill="#FFFFFF" fill-rule="nonzero" stroke="#000000" stroke-width="2.00395517">
            <g id="countdown" transform="translate(0.000000, 120.000000)">
                <g id="#3" transform="translate(579.000000, 232.000000)">
                    <path d="M143.130667,-1.00197759 C181.86503,-1.00197759 212.343361,9.29138411 233.559898,25.8434146 C256.691023,43.8891061 268.845899,69.3779984 268.713961,97.1975554 C268.591111,118.681594 261.971939,136.592547 250.725385,150.450947 C238.907802,165.01299 221.969461,175.106163 202.036644,180.137296 L202.036644,183.248179 C227.22761,187.037202 247.44485,197.025825 261.376819,212.11201 C275.333587,227.22505 283.001978,247.464018 283.001978,271.786421 C283.001978,303.688849 268.047879,330.949649 242.811961,350.266005 C217.516729,369.627761 181.868304,381.001978 140.624,381.001978 C99.482857,381.001978 64.9199961,369.748112 40.2294618,349.9125 C15.2456528,329.841281 0.342564079,300.981994 -1.04670375,266.025049 L73.3810823,266.025049 C74.2643378,281.432997 81.2607475,294.048123 92.9363895,302.755301 C104.442642,311.336155 120.463662,316.123929 139.621333,316.123929 C158.635053,316.123929 174.78886,310.968666 186.145194,301.889842 C197.297203,292.974366 203.792689,280.272448 203.792689,265.023072 C203.792689,249.329334 197.672245,236.62957 186.564942,227.859983 C175.368779,219.020239 159.152251,214.172709 139.12,214.172709 L92.2460224,214.172709 L92.2460224,156.809492 L138.368,156.809492 C155.242098,156.809492 169.423207,151.854876 179.382987,143.243424 C189.311508,134.658998 195.019356,122.444487 195.019356,107.963085 C195.019356,94.4320168 189.573662,82.5632429 179.61938,74.2003501 C170.054234,66.1643817 156.352092,61.3711272 139.370667,61.3711272 C121.363368,61.3711272 106.79,65.9582503 96.4179075,74.5535864 C85.8699661,83.2946484 79.7003466,96.1723313 78.6397285,112.471984 L6.7342753,112.471984 C7.7649049,78.0672949 21.6598894,49.3587169 45.8767692,29.4159292 C69.3372404,10.0960497 102.513212,-1.00197759 143.130667,-1.00197759 Z" id="Path"></path>
                </g>
            </g>
        </g>
    </g>
</svg>